<?xml version="1.0" encoding="iso-8859-1"?>
<!-- Generator: Adobe Illustrator 19.0.0, SVG Export Plug-In . SVG Version: 6.00 Build 0)  -->
<svg version="1.1" id="Layer_1" xmlns="http://www.w3.org/2000/svg" xmlns:xlink="http://www.w3.org/1999/xlink" x="0px" y="0px"
	 viewBox="0 0 496 496" style="enable-background:new 0 0 496 496;" xml:space="preserve">
<g>
	<g>
		<g>
			<path d="M453.888,250.576L432,228.688l-48,48V244.16l-40-32.008V0H40v212.152L0,244.16V496h352.232H384v-3.656
				c64.016-14.512,112-71.76,112-140.112C496,313.832,481.048,277.728,453.888,250.576z M432,251.312l10.576,10.576
				c0.712,0.712,1.32,1.488,2.008,2.208L400,308.688L387.312,296L432,251.312z M384,315.312l31.032,31.032
				c3.12,3.12,3.12,8.192,0,11.312L384,388.688V315.312z M368,299.312v105.376l-10.344,10.344c-3.128,3.128-8.184,3.128-11.312,0
				L296,364.688l-8.184,8.184l-36.56-27.024L368,263.448v29.24L364.688,296L368,299.312z M308.688,400l-44.584,44.584
				c-0.728-0.688-1.504-1.296-2.216-2.008L251.312,432L296,387.312L308.688,400z M344,232.648l18.688,14.952L344,260.792V232.648z
				 M56,272V16h272v256h0.12l-90.424,63.832L192,302.056l-45.696,33.776L55.88,272H56z M40,232.648v28.144L21.312,247.6L40,232.648z
				 M16,263.448l116.744,82.408L16,432.144V263.448z M16,480v-27.968l176-130.088l84.376,62.368L228.688,432l21.888,21.888
				c10.664,10.664,22.752,19.376,35.776,26.112H16z M378.92,477.152l-4.208,0.744c-0.088,0.016-0.176,0.024-0.264,0.04
				c-3.776,0.664-7.4,1.152-10.936,1.496c-3.72,0.328-7.472,0.568-11.28,0.568c-27.704,0-53.976-8.888-75.824-25.096L320,411.312
				l15.032,15.032c9.36,9.36,24.576,9.36,33.936,0l57.376-57.376c9.36-9.36,9.36-24.576,0-33.936L411.312,320l43.592-43.592
				C471.112,298.256,480,324.536,480,352.232C480,413.528,436.6,464.84,378.92,477.152z"/>
			<path d="M312,32H72v144h240V32z M296,160H88V48h208V160z"/>
			<rect x="72" y="192" width="240" height="16"/>
			<rect x="72" y="224" width="240" height="16"/>
			<rect x="296" y="256" width="16" height="16"/>
			<rect x="264" y="256" width="16" height="16"/>
			<rect x="72" y="256" width="176" height="16"/>
		</g>
	</g>
</g>
<g>
</g>
<g>
</g>
<g>
</g>
<g>
</g>
<g>
</g>
<g>
</g>
<g>
</g>
<g>
</g>
<g>
</g>
<g>
</g>
<g>
</g>
<g>
</g>
<g>
</g>
<g>
</g>
<g>
</g>
</svg>
